<svg xmlns="http://www.w3.org/2000/svg" viewBox="0 0 102.45 103.31"><defs><style>.cls-1{fill:#fff;}</style></defs><title>fleche-bas</title><g id="Calque_2" data-name="Calque 2"><g id="Calque_2-2" data-name="Calque 2"><path class="cls-1" d="M0,2.83A66,66,0,0,1,35.16,2,67.84,67.84,0,0,1,66.11,19,70.26,70.26,0,0,1,84.36,49.13a69.85,69.85,0,0,1,1.54,35l-.19,0a69.32,69.32,0,0,0-2.3-34.66A69,69,0,0,0,65,20.18,71.49,71.49,0,0,0,34.67,3.9,73.78,73.78,0,0,0,.05,3Z"/><path class="cls-1" d="M74.92,65.81C75.5,67.2,76,68.62,76.49,70s.9,2.87,1.33,4.31c.83,2.89,1.49,5.83,2,8.79.26,1.49.49,3,.71,4.47s.34,3,.46,4.49q.36,4.5.43,9l-1.4-.47,11.07-13.4,11.16-13.33.16.12L91.91,87.87,81.29,101.64,80,103.31l-.12-2.14c-.17-3-.44-5.93-.8-8.87-.18-1.48-.36-3-.58-4.42s-.39-2.94-.61-4.41c-.43-2.94-.93-5.87-1.45-8.8-.26-1.47-.54-2.93-.84-4.39l-.87-4.41Z"/></g></g></svg>